<?xml version="1.0" standalone="no"?>
<!DOCTYPE svg PUBLIC "-//W3C//DTD SVG 20010904//EN"
 "http://www.w3.org/TR/2001/REC-SVG-20010904/DTD/svg10.dtd">
<svg version="1.0" xmlns="http://www.w3.org/2000/svg"
 width="512.000000pt" height="512.000000pt" viewBox="0 0 512.000000 512.000000"
 preserveAspectRatio="xMidYMid meet">

<g transform="translate(0.000000,512.000000) scale(0.100000,-0.100000)"
fill="#000000" stroke="none">
<path d="M2362 5113 c-20 -8 -39 -53 -46 -112 -19 -149 -121 -311 -245 -390
-26 -17 -103 -49 -171 -71 -781 -258 -1335 -942 -1432 -1769 l-12 -103 -75
-38 c-385 -193 -482 -557 -267 -995 105 -213 282 -385 536 -523 86 -46 275
-122 370 -148 41 -11 89 -34 130 -63 151 -107 285 -177 465 -240 l110 -39 3
-83 c4 -124 10 -113 -106 -215 -96 -83 -109 -188 -34 -268 50 -54 67 -56 375
-56 273 0 284 1 327 23 57 28 90 83 90 150 0 66 -17 93 -106 174 -75 68 -77
71 -82 124 l-4 54 371 0 371 0 0 -33 c0 -54 -24 -95 -82 -140 -66 -51 -104
-103 -113 -155 -15 -77 52 -178 127 -192 18 -3 162 -5 319 -3 l286 3 36 28
c49 37 71 81 71 143 0 64 -34 119 -112 176 -69 51 -84 86 -80 189 l3 79 115
40 c147 50 331 143 439 221 71 51 104 67 219 105 271 89 471 204 633 364 307
303 410 732 244 1016 -62 105 -234 249 -341 284 -31 11 -32 12 -43 103 -40
316 -136 609 -280 856 -61 104 -91 134 -131 134 -39 0 -70 -31 -70 -70 0 -14
22 -62 49 -107 148 -245 230 -480 278 -786 25 -161 25 -512 0 -665 -72 -439
-252 -788 -531 -1022 -268 -226 -582 -348 -1046 -408 -178 -23 -451 -30 -595
-16 -434 43 -783 141 -1002 283 -183 119 -405 364 -508 560 -61 119 -70 128
-115 128 -38 0 -63 -18 -74 -56 -8 -28 64 -174 147 -296 36 -54 64 -98 61 -98
-14 0 -160 79 -231 126 -164 106 -316 281 -380 436 -130 318 -80 549 152 700
l60 39 7 -48 c3 -26 7 -80 7 -120 1 -99 28 -295 56 -411 18 -75 29 -102 50
-119 32 -28 55 -29 89 -2 32 25 33 56 6 171 -32 136 -50 309 -50 479 0 186 11
306 46 479 139 699 638 1261 1314 1480 148 48 222 93 317 193 75 80 141 194
169 295 l17 62 50 -27 c70 -39 121 -100 141 -171 19 -69 40 -92 84 -92 46 0
155 44 224 90 l59 39 27 -57 c24 -51 27 -68 27 -169 0 -135 1 -137 125 -177
255 -84 510 -243 737 -459 77 -74 100 -90 125 -90 38 0 68 33 68 75 0 55 -202
244 -411 384 -120 80 -308 177 -421 216 l-68 23 0 50 c-1 128 -48 252 -129
335 -64 68 -91 68 -166 0 -46 -42 -121 -90 -139 -90 -3 0 -15 19 -27 41 -28
55 -99 131 -160 169 -84 54 -205 90 -247 73z m2366 -2650 c76 -45 159 -133
195 -210 31 -66 32 -72 32 -198 0 -117 -3 -138 -29 -215 -16 -47 -40 -107 -54
-135 -66 -132 -188 -271 -322 -364 -70 -49 -270 -157 -270 -146 0 3 16 26 36
51 210 277 354 741 354 1146 0 54 3 98 6 98 3 0 26 -12 52 -27z m-2778 -1893
c99 -22 90 -13 90 -89 0 -98 39 -172 126 -241 106 -84 105 -85 -200 -88 -149
-1 -264 2 -269 7 -14 14 3 36 68 89 82 66 114 129 122 245 3 48 9 87 12 87 3
0 26 -5 51 -10z m1280 -58 c0 -38 7 -93 16 -123 14 -46 28 -66 101 -136 48
-46 82 -86 79 -92 -10 -15 -532 -15 -542 0 -3 6 31 46 79 92 73 70 87 90 101
136 9 30 16 78 16 108 0 58 -7 51 85 72 67 15 65 17 65 -57z"/>
<path d="M2498 3058 c-127 -16 -243 -103 -301 -225 -29 -62 -32 -76 -32 -168
0 -92 3 -106 32 -167 118 -250 435 -309 636 -119 96 91 141 224 118 350 -40
218 -233 357 -453 329z m149 -163 c60 -25 102 -63 128 -115 30 -59 31 -67 8
-74 -75 -23 -372 -24 -444 -1 -57 18 40 158 132 191 48 18 133 17 176 -1z
m-147 -362 c69 -3 158 -1 198 4 39 5 72 8 72 5 0 -2 -9 -17 -21 -33 -52 -74
-183 -109 -275 -74 -49 19 -108 64 -126 98 -9 17 -8 19 8 13 11 -4 75 -10 144
-13z"/>
<path d="M1603 2966 c-27 -23 -28 -29 -31 -123 -5 -148 24 -199 103 -179 43
11 57 55 53 173 -3 101 -4 106 -31 129 -35 30 -59 30 -94 0z"/>
<path d="M3435 2979 c-40 -23 -45 -39 -45 -156 0 -108 1 -115 25 -138 13 -14
36 -25 50 -25 14 0 37 11 50 25 24 23 25 30 25 138 0 95 -3 118 -17 135 -22
26 -62 35 -88 21z"/>
</g>
</svg>
